<?xml version="1.0" standalone="no"?><!DOCTYPE svg PUBLIC "-//W3C//DTD SVG 1.1//EN" "http://www.w3.org/Graphics/SVG/1.1/DTD/svg11.dtd"><svg t="1536735467642" class="icon" style="" viewBox="0 0 1024 1024" version="1.1" xmlns="http://www.w3.org/2000/svg" p-id="10165" xmlns:xlink="http://www.w3.org/1999/xlink" width="18" height="18"><defs><style type="text/css"></style></defs><path d="M756.75136 348.83072 702.3616 348.83072c-15.03232 0-27.19744 12.19072-27.19744 27.19744l0 54.38976c0 15.03232 12.16512 27.19744 27.19744 27.19744l54.38976 0c15.03232 0 27.19232-12.16512 27.19232-27.19744L783.94368 376.02816C783.93856 361.02144 771.77856 348.83072 756.75136 348.83072z" p-id="10166" fill="#707070"></path><path d="M838.32832 190.79168 185.67168 190.79168c-60.07296 0-108.77952 48.70656-108.77952 108.77952l0 435.10272c0 60.07296 48.70656 108.77952 108.77952 108.77952l652.66176 0c60.06784 0 108.7744-48.70656 108.7744-108.77952L947.10784 299.56608C947.10272 239.49312 898.40128 190.79168 838.32832 190.79168zM539.19744 729.5488 212.864 729.5488c-15.03232 0-27.19744-12.16-27.19744-27.19232s12.16-27.19744 27.19744-27.19744l326.32832 0c15.0272 0 27.19744 12.16512 27.19744 27.19744S554.22464 729.5488 539.19744 729.5488zM539.19744 620.77952 212.864 620.77952c-15.03232 0-27.19744-12.17024-27.19744-27.20256 0-15.0016 12.16-27.19232 27.19744-27.19232l326.32832 0c15.0272 0 27.19744 12.19072 27.19744 27.19232C566.38976 608.60928 554.22464 620.77952 539.19744 620.77952zM838.32832 457.61024c0 30.03904-24.35072 54.38976-54.38976 54.38976l-108.7744 0c-30.03392 0-54.38976-24.35072-54.38976-54.38976L620.7744 348.83584c0-30.03392 24.35584-54.38976 54.38976-54.38976l108.7744 0c30.03904 0 54.38976 24.35072 54.38976 54.38976L838.32832 457.61024z" p-id="10167" fill="#707070"></path></svg>